# xmcd CD database file
#
# Track frame offsets:
#	150
#	7768
#	30321
#	40716
#	53468
#	63417
#	76671
#	87809
#	98072
#	108122
#	117411
#	126287
#	137563
#	151511
#	162282
#	176125
#	197818
#	206215
#	214285
#	226183
#	236922
#	245068
#	254940
#	265624
#	274606
#
# Disc length: 3923 seconds
#
# Revision: 0
# Processed by: cddbd v1.5.2PL0 Copyright (c) Steve Scherf et al.
# Submitted via: CDex 1.70beta2
#
DISCID=4b0f5119
DTITLE=Johnny Cash - The Troubadour [CD 1/3)
DYEAR=2011
DGENRE=Country
TTITLE0=Hey, good lookin'
TTITLE1=Loading coal
TTITLE2=Frankie and Johnny
TTITLE3=Folsom prison blues 
TTITLE4=Rock Island Line
TTITLE5=When papa played the Dobro
TTITLE6=Mean eyed cat
TTITLE7=The troubadour
TTITLE8=Straight a's in love
TTITLE9=Luther played the Boogie
TTITLE10=Honky tonk girl
TTITLE11=I'd rather die young
TTITLE12=Lumberjack
TTITLE13=Run softly, Blue River
TTITLE14=Don't take your guns to town
TTITLE15=Dorraine of ponchartrain
TTITLE16=Country boy
TTITLE17=Old Apache squaw
TTITLE18=I'm so lonesome I could cry
TTITLE19=You win again
TTITLE20=Time changes everything
TTITLE21=Hank and Joe and me
TTITLE22=I just thought you'd like to know
TTITLE23=Pickin' time
TTITLE24=Going to Memphis
EXTD=YEAR: 2011
EXTT0=
EXTT1=
EXTT2=
EXTT3=
EXTT4=
EXTT5=
EXTT6=
EXTT7=
EXTT8=
EXTT9=
EXTT10=
EXTT11=
EXTT12=
EXTT13=
EXTT14=
EXTT15=
EXTT16=
EXTT17=
EXTT18=
EXTT19=
EXTT20=
EXTT21=
EXTT22=
EXTT23=
EXTT24=
PLAYORDER=
